<?xml version="1.0" encoding="utf-8"?>
<svg width="240" height="240" viewBox="0 0 180 180" xmlns="http://www.w3.org/2000/svg" xmlns:bx="https://boxy-svg.com"><defs><linearGradient bx:pinned="true" id="color-1"><stop style="stop-color: #36d1dc;" offset="0"/><stop style="stop-color: #5b86e5;" offset="1"/></linearGradient><linearGradient id="color-1-0" href="#color-1" gradientUnits="userSpaceOnUse" x1="117.651" y1="30.772" x2="117.651" y2="215.962" gradientTransform="matrix(0.971975, 0, 0, 0.971975, -24.353799, -29.909602)"/><bx:export><bx:file format="svg" path="未命名.svg"/></bx:export></defs><ellipse style="stroke-width: 6px; paint-order: fill; fill-rule: nonzero; fill: url(&quot;#color-1-0&quot;);" cx="90" cy="90" rx="90" ry="90"/><path d="M 41.687 124.247 L 41.687 71.16 C 41.687 51.546 62.922 39.285 79.91 49.093 C 87.792 53.646 92.651 62.057 92.651 71.16 L 92.651 124.247 M 92.651 71.16 C 92.651 51.546 113.886 39.285 130.874 49.093 C 138.756 53.646 143.615 62.057 143.615 71.16 L 143.615 124.247" fill="none" stroke-linejoin="round" style="stroke-width: 8px; stroke-linecap: square; stroke: rgb(255, 255, 255);"/><path d="M 67.169 139.093 L 67.169 86.006 C 67.169 66.389 88.404 54.13 105.392 63.939 C 113.276 68.489 118.133 76.902 118.133 86.006 L 118.133 139.093" fill="none" stroke-linejoin="round" style="stroke-width: 8px; stroke-linecap: square; stroke: rgb(255, 255, 255);"/></svg>